<svg width="535" height="337" viewBox="0 0 535 337" fill="none" xmlns="http://www.w3.org/2000/svg">
<path d="M0 0H534C534 0 538.5 23 515 35.5C491.5 48 469 45 469 45H70C70 45 37 45 22 35.5C7 26 0 0 0 0Z" fill="#D9D9D9"/>
<rect x="247" width="48" height="337" fill="#D9D9D9"/>
<rect x="191" y="290" width="160" height="47" rx="23" fill="#D9D9D9"/>
<path d="M98.1792 78.674C88.4713 67.1087 70.691 67.1087 60.9831 78.674L18.0944 129.768C16.8904 131.203 15.8879 132.706 15.0755 134.253C5.58926 147.418 0 163.585 0 181.058C0 225.292 35.8172 261.15 80 261.15C124.183 261.15 160 225.292 160 181.058C160 158.987 151.082 139.001 136.657 124.514L98.1792 78.674Z" fill="#D9D9D9"/>
<circle cx="80.5" cy="90.5" r="29.5" fill="#D9D9D9"/>
<path d="M472.179 78.674C462.471 67.1087 444.691 67.1087 434.983 78.674L392.094 129.768C390.89 131.203 389.888 132.706 389.076 134.253C379.589 147.418 374 163.585 374 181.058C374 225.292 409.817 261.15 454 261.15C498.183 261.15 534 225.292 534 181.058C534 158.987 525.082 139.001 510.657 124.514L472.179 78.674Z" fill="#D9D9D9"/>
<circle cx="454.5" cy="90.5" r="29.5" fill="#D9D9D9"/>
<path d="M0 0H534C534 0 538.5 23 515 35.5C491.5 48 469 45 469 45H70C70 45 37 45 22 35.5C7 26 0 0 0 0Z" fill="#052C38"/>
<rect x="247" width="48" height="337" fill="#052C38"/>
<rect x="191" y="290" width="160" height="47" rx="23" fill="#052C38"/>
<path d="M98.1792 78.674C88.4713 67.1087 70.691 67.1087 60.9831 78.674L18.0944 129.768C16.8904 131.203 15.8879 132.706 15.0755 134.253C5.58926 147.418 0 163.585 0 181.058C0 225.292 35.8172 261.15 80 261.15C124.183 261.15 160 225.292 160 181.058C160 158.987 151.082 139.001 136.657 124.514L98.1792 78.674Z" fill="#89AC01"/>
<circle cx="80.5" cy="90.5" r="29.5" fill="#89AC01"/>
<path d="M472.179 78.674C462.471 67.1087 444.691 67.1087 434.983 78.674L392.094 129.768C390.89 131.203 389.888 132.706 389.076 134.253C379.589 147.418 374 163.585 374 181.058C374 225.292 409.817 261.15 454 261.15C498.183 261.15 534 225.292 534 181.058C534 158.987 525.082 139.001 510.657 124.514L472.179 78.674Z" fill="#018CB8"/>
<circle cx="454.5" cy="90.5" r="29.5" fill="#018CB8"/>
</svg>
